<svg width="467" height="877" viewBox="0 0 467 877" fill="none" xmlns="http://www.w3.org/2000/svg">
<path d="M162.119 0L0 93.5996L101.281 152.125L263.445 58.5001L162.119 0Z" fill="#BBFF70"/>
<path d="M162.119 46.6562L0 140.256L101.281 198.782L263.445 105.156L162.119 46.6562Z" fill="#BBFF70"/>
<path d="M162.119 93.3145L0 186.914L101.281 245.44L263.445 151.815L162.119 93.3145Z" fill="#BBFF70"/>
<path d="M162.119 139.971L0 233.57L101.281 292.096L263.445 198.471L162.119 139.971Z" fill="#BBFF70"/>
<path d="M162.119 186.631L0 280.23L101.281 338.756L263.445 245.131L162.119 186.631Z" fill="#BBFF70"/>
<path d="M162.119 233.289L0 326.889L101.281 385.414L263.445 291.789L162.119 233.289Z" fill="#BBFF70"/>
<path d="M162.119 279.945L0 373.545L101.281 432.071L263.445 338.445L162.119 279.945Z" fill="#BBFF70"/>
<path d="M162.119 326.602L0 420.201L101.281 478.727L263.445 385.102L162.119 326.602Z" fill="#BBFF70"/>
<path d="M162.119 373.26L0 466.859L101.281 525.385L263.445 431.76L162.119 373.26Z" fill="#BBFF70"/>
<path d="M0.285156 140.255V93.5977L100.997 152.204V198.401L0.285156 140.255Z" fill="#519704"/>
<path d="M0.285156 186.915V140.258L100.997 198.864V245.062L0.285156 186.915Z" fill="#519704"/>
<path d="M0.285156 233.572V186.914L100.997 245.521V291.718L0.285156 233.572Z" fill="#519704"/>
<path d="M0.285156 280.23V233.572L100.997 292.179V338.376L0.285156 280.23Z" fill="#519704"/>
<path d="M0.285156 326.888V280.23L100.997 338.837V385.034L0.285156 326.888Z" fill="#519704"/>
<path d="M0.285156 373.544V326.887L100.997 385.493V431.69L0.285156 373.544Z" fill="#519704"/>
<path d="M0.285156 420.201V373.543L100.997 432.149V478.347L0.285156 420.201Z" fill="#519704"/>
<path d="M0.285156 466.861V420.203L100.997 478.81V525.007L0.285156 466.861Z" fill="#519704"/>
<path d="M0.285156 513.517V466.859L100.997 525.466V571.663L0.285156 513.517Z" fill="#519704"/>
<path d="M0.285156 560.896V514.238L100.997 572.845V619.042L0.285156 560.896Z" fill="#519704"/>
<path d="M0.285156 607.742V561.084L100.997 619.69V665.888L0.285156 607.742Z" fill="#519704"/>
<path d="M263.73 104.695V58.8906L101.566 152.206V198.579L263.73 104.695Z" fill="#6FD400"/>
<path d="M263.73 151.353V105.549L101.566 198.864V245.237L263.73 151.353Z" fill="#6FD400"/>
<path d="M263.73 198.009V152.205L101.566 245.52V291.893L263.73 198.009Z" fill="#6FD400"/>
<path d="M263.73 244.665V198.861L101.566 292.176V338.55L263.73 244.665Z" fill="#6FD400"/>
<path d="M263.73 291.326V245.521L101.566 338.837V385.21L263.73 291.326Z" fill="#6FD400"/>
<path d="M263.73 337.982V292.178L101.566 385.493V431.866L263.73 337.982Z" fill="#6FD400"/>
<path d="M263.73 384.64V338.836L101.566 432.151V478.524L263.73 384.64Z" fill="#6FD400"/>
<path d="M263.73 431.298V385.494L101.566 478.809V525.182L263.73 431.298Z" fill="#6FD400"/>
<path d="M263.73 477.954V432.15L101.566 525.466V571.839L263.73 477.954Z" fill="#6FD400"/>
<path d="M164.829 13.8076C163.897 13.6509 162.906 13.5664 161.879 13.5664C156.38 13.5665 151.922 15.9865 151.922 18.9717C151.922 21.957 156.38 24.3768 161.879 24.377C167.378 24.377 171.837 21.957 171.837 18.9717C171.837 18.5268 171.736 18.0953 171.549 17.6816L234.574 54.0195C233.265 53.6757 231.795 53.4824 230.243 53.4824C224.744 53.4825 220.286 55.9025 220.286 58.8877C220.286 61.873 224.744 64.2929 230.243 64.293C235.742 64.293 240.201 61.873 240.201 58.8877C240.201 58.1591 239.934 57.4654 239.452 56.8311L246.277 60.7666L105.345 142.021L17.3242 91.2275L158.218 9.99609L164.829 13.8076ZM105.021 125.896C99.4987 125.896 95.0225 128.307 95.0225 131.28C95.0227 134.253 99.4989 136.664 105.021 136.664C110.542 136.664 115.018 134.253 115.019 131.28C115.019 128.307 110.542 125.896 105.021 125.896ZM35.4844 86.0879C29.9853 86.088 25.5275 88.508 25.5273 91.4932C25.5273 94.4784 29.9852 96.8983 35.4844 96.8984C40.9837 96.8984 45.4424 94.4785 45.4424 91.4932C45.4422 88.5079 40.9836 86.0879 35.4844 86.0879Z" fill="#7CEE00"/>
<ellipse cx="128.024" cy="74.8197" rx="43.8126" ry="21.3373" fill="#BBFF70"/>
<path d="M163.017 116.998L202.563 94.2782L100.143 35.1465L60.8828 57.8136L163.017 116.998Z" fill="#EEFFDB"/>
<path d="M263.401 152.49L101.281 246.09L202.562 304.616L364.726 210.99L263.401 152.49Z" fill="#BBFF70"/>
<path d="M263.401 199.148L101.281 292.748L202.562 351.274L364.726 257.649L263.401 199.148Z" fill="#BBFF70"/>
<path d="M263.401 245.805L101.281 339.404L202.562 397.93L364.726 304.305L263.401 245.805Z" fill="#BBFF70"/>
<path d="M263.401 292.463L101.281 386.063L202.562 444.588L364.726 350.963L263.401 292.463Z" fill="#BBFF70"/>
<path d="M263.401 339.119L101.281 432.719L202.562 491.244L364.726 397.619L263.401 339.119Z" fill="#BBFF70"/>
<path d="M263.401 385.777L101.281 479.377L202.562 537.903L364.726 444.277L263.401 385.777Z" fill="#BBFF70"/>
<path d="M263.401 432.438L101.281 526.037L202.562 584.563L364.726 490.938L263.401 432.438Z" fill="#BBFF70"/>
<path d="M263.401 479.094L101.281 572.693L202.562 631.219L364.726 537.594L263.401 479.094Z" fill="#BBFF70"/>
<path d="M263.401 525.75L101.281 619.35L202.562 677.875L364.726 584.25L263.401 525.75Z" fill="#BBFF70"/>
<path d="M101.566 292.747V246.09L202.278 304.696V350.894L101.566 292.747Z" fill="#519704"/>
<path d="M101.566 339.404V292.746L202.278 351.353V397.55L101.566 339.404Z" fill="#519704"/>
<path d="M101.566 386.062V339.404L202.278 398.011V444.208L101.566 386.062Z" fill="#519704"/>
<path d="M101.566 432.72V386.062L202.278 444.669V490.866L101.566 432.72Z" fill="#519704"/>
<path d="M101.566 479.378V432.721L202.278 491.327V537.524L101.566 479.378Z" fill="#519704"/>
<path d="M101.566 526.036V479.379L202.278 537.985V584.183L101.566 526.036Z" fill="#519704"/>
<path d="M101.566 572.693V526.035L202.278 584.642V630.839L101.566 572.693Z" fill="#519704"/>
<path d="M101.566 619.349V572.691L202.278 631.298V677.495L101.566 619.349Z" fill="#519704"/>
<path d="M101.566 666.007V619.35L202.278 677.956V724.153L101.566 666.007Z" fill="#519704"/>
<path d="M365.011 257.185V211.381L202.848 304.696V351.069L365.011 257.185Z" fill="#6FD400"/>
<path d="M365.011 303.845V258.041L202.848 351.356V397.729L365.011 303.845Z" fill="#6FD400"/>
<path d="M365.011 350.501V304.697L202.848 398.012V444.385L365.011 350.501Z" fill="#6FD400"/>
<path d="M365.011 397.158V351.354L202.848 444.669V491.042L365.011 397.158Z" fill="#6FD400"/>
<path d="M365.011 443.816V398.012L202.848 491.327V537.7L365.011 443.816Z" fill="#6FD400"/>
<path d="M365.011 490.472V444.668L202.848 537.983V584.356L365.011 490.472Z" fill="#6FD400"/>
<path d="M365.011 537.13V491.326L202.848 584.641V631.014L365.011 537.13Z" fill="#6FD400"/>
<path d="M365.011 583.79V537.986L202.848 631.301V677.675L365.011 583.79Z" fill="#6FD400"/>
<path d="M365.011 630.447V584.643L202.848 677.958V724.331L365.011 630.447Z" fill="#6FD400"/>
<path d="M266.114 166.301C265.181 166.144 264.189 166.059 263.16 166.059C257.661 166.059 253.203 168.479 253.203 171.464C253.203 174.449 257.661 176.869 263.16 176.869C268.659 176.869 273.118 174.449 273.118 171.464C273.118 171.018 273.016 170.586 272.829 170.172L335.862 206.513C334.551 206.168 333.079 205.975 331.524 205.975C326.025 205.975 321.568 208.395 321.567 211.38C321.567 214.365 326.025 216.785 331.524 216.785C337.024 216.785 341.482 214.365 341.482 211.38C341.482 210.65 341.214 209.955 340.731 209.32L347.559 213.257L206.626 294.511L118.605 243.718L259.499 162.486L266.114 166.301ZM206.302 278.387C200.78 278.387 196.304 280.797 196.304 283.771C196.304 286.744 200.78 289.154 206.302 289.154C211.823 289.154 216.3 286.744 216.3 283.771C216.3 280.797 211.824 278.387 206.302 278.387ZM136.765 238.578C131.266 238.578 126.808 240.998 126.808 243.983C126.808 246.969 131.265 249.389 136.765 249.389C142.264 249.389 146.723 246.969 146.723 243.983C146.722 240.998 142.264 238.578 136.765 238.578Z" fill="#7CEE00"/>
<ellipse cx="229.305" cy="227.312" rx="43.8126" ry="21.3373" fill="#BBFF70"/>
<path d="M264.299 269.486L303.844 246.766L201.425 187.635L162.164 210.302L264.299 269.486Z" fill="#EEFFDB"/>
<path d="M365.252 304.98L203.133 398.58L304.414 457.106L466.577 363.481L365.252 304.98Z" fill="#BBFF70"/>
<path d="M365.252 351.639L203.133 445.238L304.414 503.764L466.577 410.139L365.252 351.639Z" fill="#BBFF70"/>
<path d="M365.252 398.295L203.133 491.895L304.414 550.42L466.577 456.795L365.252 398.295Z" fill="#BBFF70"/>
<path d="M365.252 444.953L203.133 538.553L304.414 597.078L466.577 503.453L365.252 444.953Z" fill="#BBFF70"/>
<path d="M365.252 491.611L203.133 585.211L304.414 643.737L466.577 550.111L365.252 491.611Z" fill="#BBFF70"/>
<path d="M365.252 538.268L203.133 631.867L304.414 690.393L466.577 596.768L365.252 538.268Z" fill="#BBFF70"/>
<path d="M365.252 584.928L203.133 678.527L304.414 737.053L466.577 643.428L365.252 584.928Z" fill="#BBFF70"/>
<path d="M365.252 631.584L203.133 725.184L304.414 783.709L466.577 690.084L365.252 631.584Z" fill="#BBFF70"/>
<path d="M365.252 678.242L203.133 771.842L304.414 830.367L466.577 736.742L365.252 678.242Z" fill="#BBFF70"/>
<path d="M203.414 445.24V398.582L304.126 457.188V503.386L203.414 445.24Z" fill="#519704"/>
<path d="M203.414 491.896V445.238L304.126 503.845V550.042L203.414 491.896Z" fill="#519704"/>
<path d="M203.414 538.552V491.895L304.126 550.501V596.698L203.414 538.552Z" fill="#519704"/>
<path d="M203.414 585.21V538.553L304.126 597.159V643.356L203.414 585.21Z" fill="#519704"/>
<path d="M203.414 631.867V585.209L304.126 643.815V690.013L203.414 631.867Z" fill="#519704"/>
<path d="M203.414 678.527V631.869L304.126 690.476V736.673L203.414 678.527Z" fill="#519704"/>
<path d="M203.414 725.185V678.527L304.126 737.134V783.331L203.414 725.185Z" fill="#519704"/>
<path d="M203.414 771.841V725.184L304.126 783.79V829.987L203.414 771.841Z" fill="#519704"/>
<path d="M203.414 818.497V771.84L304.126 830.446V876.644L203.414 818.497Z" fill="#519704"/>
<path d="M466.863 409.675V363.871L304.699 457.186V503.559L466.863 409.675Z" fill="#6FD400"/>
<path d="M466.863 456.331V410.527L304.699 503.842V550.216L466.863 456.331Z" fill="#6FD400"/>
<path d="M466.863 502.994V457.189L304.699 550.505V596.878L466.863 502.994Z" fill="#6FD400"/>
<path d="M466.863 549.65V503.846L304.699 597.161V643.534L466.863 549.65Z" fill="#6FD400"/>
<path d="M466.863 596.306V550.502L304.699 643.817V690.19L466.863 596.306Z" fill="#6FD400"/>
<path d="M466.863 642.964V597.16L304.699 690.475V736.848L466.863 642.964Z" fill="#6FD400"/>
<path d="M466.863 689.62V643.816L304.699 737.132V783.505L466.863 689.62Z" fill="#6FD400"/>
<path d="M466.863 736.277V690.473L304.699 783.788V830.161L466.863 736.277Z" fill="#6FD400"/>
<path d="M466.863 782.939V737.135L304.699 830.45V876.823L466.863 782.939Z" fill="#6FD400"/>
<path d="M367.962 318.79C367.03 318.633 366.039 318.549 365.012 318.549C359.513 318.549 355.055 320.969 355.055 323.954C355.055 326.939 359.513 329.359 365.012 329.359C370.511 329.359 374.97 326.939 374.97 323.954C374.97 323.509 374.868 323.078 374.682 322.664L437.713 359.005C436.402 358.66 434.931 358.467 433.377 358.467C427.878 358.467 423.42 360.887 423.42 363.872C423.42 366.857 427.878 369.277 433.377 369.277C438.876 369.277 443.335 366.857 443.335 363.872C443.335 363.143 443.067 362.448 442.584 361.813L449.41 365.749L308.478 447.003L220.457 396.21L361.351 314.979L367.962 318.79ZM308.154 430.879C302.633 430.879 298.156 433.289 298.156 436.263C298.156 439.236 302.633 441.646 308.154 441.646C313.676 441.646 318.152 439.236 318.152 436.263C318.152 433.289 313.676 430.879 308.154 430.879ZM238.618 391.07C233.119 391.07 228.661 393.49 228.661 396.476C228.661 399.461 233.119 401.881 238.618 401.881C244.117 401.881 248.576 399.461 248.576 396.476C248.576 393.49 244.117 391.07 238.618 391.07Z" fill="#7CEE00"/>
<ellipse cx="331.156" cy="379.804" rx="43.8126" ry="21.3373" fill="#BBFF70"/>
<path d="M366.15 421.978L405.695 399.259L303.276 340.127L264.016 362.794L366.15 421.978Z" fill="#EEFFDB"/>
</svg>
