<svg width="158" height="158" viewBox="0 0 158 158" fill="none" xmlns="http://www.w3.org/2000/svg">
<path d="M102.001 151.833C112.696 151.833 118.04 151.833 122.448 150.775C129.323 149.125 135.608 145.605 140.608 140.606C145.607 135.606 149.127 129.321 150.777 122.446C151.835 118.038 151.835 112.694 151.835 101.999M56.0013 151.833C45.3063 151.833 39.9626 151.833 35.5543 150.775C28.6792 149.125 22.3944 145.605 17.3949 140.606C12.3955 135.606 8.87608 129.321 7.22597 122.446C6.16797 118.038 6.16797 112.694 6.16797 101.999M56.0013 6.16602C45.3063 6.16602 39.9626 6.16602 35.5543 7.22402C28.6792 8.87412 22.3944 12.3935 17.3949 17.393C12.3955 22.3925 8.87608 28.6773 7.22597 35.5524C6.16797 39.9607 6.16797 45.312 6.16797 55.9994M102.001 6.16602C112.696 6.16602 118.04 6.16602 122.448 7.22402C129.323 8.87412 135.608 12.3935 140.608 17.393C145.607 22.3925 149.127 28.6773 150.777 35.5524C151.835 39.9607 151.835 45.312 151.835 55.9994M102.001 59.8327C102.001 53.7327 99.5781 47.8826 95.2648 43.5692C90.9514 39.2559 85.1013 36.8327 79.0013 36.8327C72.9013 36.8327 67.0512 39.2559 62.7378 43.5692C58.4245 47.8826 56.0013 53.7327 56.0013 59.8327C56.0013 65.9327 58.4245 71.7828 62.7378 76.0961C67.0512 80.4095 72.9013 82.8327 79.0013 82.8327C85.1013 82.8327 90.9514 80.4095 95.2648 76.0961C99.5781 71.7828 102.001 65.9327 102.001 59.8327Z" stroke="white" stroke-width="12" stroke-linecap="round" stroke-linejoin="round"/>
<path d="M117.335 121.165C117.335 110.999 113.296 101.249 106.107 94.0596C98.9182 86.8707 89.1679 82.832 79.0013 82.832C68.8347 82.832 59.0844 86.8707 51.8955 94.0596C44.7066 101.249 40.668 110.999 40.668 121.165" stroke="white" stroke-width="12" stroke-linecap="round" stroke-linejoin="round"/>
</svg>
