<svg width="166" height="136" viewBox="0 0 166 136" fill="none" xmlns="http://www.w3.org/2000/svg">
<path d="M6.33203 67.9993C6.33203 39.0883 6.33203 24.629 15.3174 15.6513C24.3027 6.67368 38.7544 6.66602 67.6654 6.66602H98.332C127.243 6.66602 141.702 6.66601 150.68 15.6513C159.658 24.6367 159.665 39.0883 159.665 67.9993C159.665 96.9103 159.665 111.37 150.68 120.347C141.695 129.325 127.243 129.333 98.332 129.333H67.6654C38.7544 129.333 24.295 129.333 15.3174 120.347C6.3397 111.362 6.33203 96.9103 6.33203 67.9993Z" stroke="white" stroke-width="12"/>
<path d="M67.6654 98.666H36.9987M98.332 98.666H86.832M6.33203 52.666H159.665" stroke="white" stroke-width="12" stroke-linecap="round"/>
</svg>
