<svg width="158" height="157" viewBox="0 0 158 157" fill="none" xmlns="http://www.w3.org/2000/svg">
<path d="M145.528 12.3828C140.432 7.68661 115.9 0.0924859 79.277 0L78.712 0C42.1914 0.0924859 17.5566 7.68661 12.4612 12.3828C7.07812 17.1613 0 42.0194 0 78.5C0 114.981 7.07812 139.839 12.4612 144.617C17.5566 149.313 42.0989 156.908 78.712 157H79.277C115.89 157 140.432 149.406 145.528 144.617C150.901 139.839 157.979 114.981 157.979 78.5C157.979 42.0194 150.901 17.1716 145.528 12.3828ZM105.237 109.493C100.635 109.493 98.7033 107.499 98.3335 102.598L96.772 69.8577H96.5871C95.3029 74.667 85.1737 98.703 85.1737 98.703H71.829C71.829 98.703 61.7101 74.3073 60.9705 71.7691L60.426 69.8577H60.2411C60.5184 74.0298 58.6693 102.598 58.6693 102.598C58.2995 107.499 56.4606 109.493 51.7658 109.493H40.9072L43.3933 78.2945L46.3417 47.5583H64.1962L78.4654 78.5719H78.6503C79.842 74.8519 93.3716 47.5583 93.3716 47.5583H111.134L114.082 83.0215H114.072L116.096 109.493H105.237Z" fill="#0357EE"/>
</svg>
