<svg width="59" height="50" viewBox="0 0 59 50" fill="none" xmlns="http://www.w3.org/2000/svg">
<path d="M35.3409 48.612L58.832 24.9987L35.3409 1.38537C35.1288 1.10677 34.8592 0.877006 34.5506 0.711631C34.2419 0.546255 33.9013 0.449132 33.5518 0.426834C33.2023 0.404537 32.8521 0.457588 32.525 0.582393C32.1978 0.707199 31.9012 0.900846 31.6554 1.15023C31.4095 1.3996 31.2201 1.69889 31.1 2.02783C30.9799 2.35677 30.9319 2.70768 30.9591 3.0568C30.9864 3.40591 31.0884 3.7451 31.2582 4.05138C31.4279 4.35766 31.6615 4.62389 31.9431 4.83204L49.5187 22.5543L2.75647 22.5543C2.10817 22.5543 1.48641 22.8118 1.028 23.2702C0.569571 23.7286 0.31203 24.3504 0.31203 24.9987C0.31203 25.647 0.569571 26.2688 1.02799 26.7272C1.48641 27.1856 2.10817 27.4431 2.75647 27.4431L49.5187 27.4431L31.9431 45.1654C31.4861 45.6257 31.2306 46.2487 31.2329 46.8973C31.2352 47.546 31.4951 48.1672 31.9554 48.6243C32.4157 49.0813 33.0387 49.3368 33.6873 49.3345C34.336 49.3322 34.9572 49.0723 35.4143 48.612L35.3409 48.612Z" fill="#002C88"/>
</svg>
