<svg width="140" height="132" viewBox="0 0 140 132" fill="none" xmlns="http://www.w3.org/2000/svg">
<path d="M40.9214 64.1372C41.6342 64.8492 42.1997 65.6948 42.5855 66.6255C42.9713 67.5562 43.1699 68.5538 43.1699 69.5614C43.1699 70.5689 42.9713 71.5665 42.5855 72.4972C42.1997 73.428 41.6342 74.2735 40.9214 74.9855L26.9144 89.0002H100.668C102.701 89.0002 104.651 89.8079 106.089 91.2457C107.527 92.6835 108.334 94.6335 108.334 96.6669C108.334 98.7002 107.527 100.65 106.089 102.088C104.651 103.526 102.701 104.334 100.668 104.334H26.9144L40.9291 118.348C41.6414 119.06 42.2065 119.905 42.5922 120.835C42.9779 121.766 43.1766 122.763 43.177 123.77C43.1773 124.777 42.9793 125.774 42.5943 126.704C42.2093 127.635 41.6447 128.48 40.9329 129.193C40.2211 129.905 39.376 130.47 38.4457 130.856C37.5155 131.242 36.5185 131.44 35.5115 131.441C34.5044 131.441 33.5072 131.243 32.5767 130.858C31.6463 130.473 30.8007 129.908 30.0884 129.197L2.97907 102.087C1.54179 100.649 0.734375 98.6998 0.734375 96.6669C0.734375 94.6339 1.54179 92.6842 2.97907 91.2465L30.0884 64.1372C31.5261 62.6999 33.4758 61.8925 35.5087 61.8925C37.5417 61.8925 39.4914 62.6999 40.9291 64.1372H40.9214ZM99.0807 2.80386C100.401 1.48384 102.157 0.69087 104.021 0.573714C105.884 0.456558 107.726 1.02327 109.201 2.16753L109.921 2.80386L137.031 29.9132C138.351 31.2333 139.144 32.9898 139.261 34.853C139.378 36.7162 138.811 38.5581 137.667 40.0332L137.031 40.7539L109.921 67.8555C108.542 69.2305 106.69 70.0288 104.743 70.0883C102.797 70.1477 100.9 69.4639 99.4389 68.1756C97.9779 66.8874 97.0621 65.0913 96.8773 63.1522C96.6926 61.2132 97.2529 59.2765 98.4444 57.7355L99.0807 57.0149L113.088 43.0002H39.3344C37.3803 42.998 35.5008 42.2498 34.0799 40.9084C32.659 39.5669 31.8039 37.7336 31.6894 35.7828C31.5749 33.8321 32.2096 31.9113 33.4638 30.4128C34.718 28.9143 36.497 27.9513 38.4374 27.7205L39.3344 27.6669H113.095L99.0807 13.6369C97.6435 12.1992 96.836 10.2495 96.836 8.21653C96.836 6.1836 97.6435 4.24158 99.0807 2.80386Z" fill="white"/>
</svg>
